<svg xmlns="http://www.w3.org/2000/svg" viewBox="0 0 1600 900" role="img" aria-labelledby="title desc">
  <title id="title">Team collaboration illustration</title>
  <desc id="desc">A branded team collaboration scene supporting DigiTalent corporate positioning.</desc>
  <defs>
    <linearGradient id="bg" x1="0%" y1="0%" x2="100%" y2="100%">
      <stop offset="0%" stop-color="#eef8ff"/>
      <stop offset="45%" stop-color="#d4edff"/>
      <stop offset="100%" stop-color="#0f2340"/>
    </linearGradient>
  </defs>
  <rect width="1600" height="900" fill="url(#bg)"/>
  <circle cx="1250" cy="170" r="180" fill="#f3a836" fill-opacity="0.24"/>
  <circle cx="240" cy="780" r="210" fill="#009adf" fill-opacity="0.18"/>
  <rect x="100" y="110" width="1400" height="680" rx="44" fill="#ffffff" fill-opacity="0.86"/>
  <rect x="180" y="190" width="1240" height="420" rx="38" fill="#0f2340" fill-opacity="0.08"/>
  <rect x="320" y="320" width="960" height="110" rx="28" fill="#09468a"/>
  <g>
    <circle cx="420" cy="560" r="62" fill="#09468a"/>
    <path d="M356 652c18-72 62-112 64-114 2 2 46 42 64 114z" fill="#09468a"/>
    <circle cx="680" cy="560" r="62" fill="#f3a836"/>
    <path d="M616 652c18-72 62-112 64-114 2 2 46 42 64 114z" fill="#f3a836"/>
    <circle cx="940" cy="560" r="62" fill="#009adf"/>
    <path d="M876 652c18-72 62-112 64-114 2 2 46 42 64 114z" fill="#009adf"/>
    <circle cx="1200" cy="560" r="62" fill="#ffffff"/>
    <path d="M1136 652c18-72 62-112 64-114 2 2 46 42 64 114z" fill="#ffffff"/>
  </g>
  <g fill="#ffffff">
    <rect x="388" y="352" width="170" height="22" rx="11"/>
    <rect x="618" y="352" width="364" height="22" rx="11" fill-opacity="0.82"/>
    <rect x="1020" y="352" width="128" height="22" rx="11" fill-opacity="0.82"/>
  </g>
  <path d="M482 560h136" stroke="#09468a" stroke-width="8" stroke-linecap="round" stroke-dasharray="10 14"/>
  <path d="M742 560h136" stroke="#09468a" stroke-width="8" stroke-linecap="round" stroke-dasharray="10 14"/>
  <path d="M1002 560h136" stroke="#09468a" stroke-width="8" stroke-linecap="round" stroke-dasharray="10 14"/>
  <text x="184" y="728" fill="#09468a" font-family="Manrope, Arial, sans-serif" font-size="50" font-weight="800">
    Cross-functional collaboration for delivery, support, and transformation.
  </text>
</svg>
